<?xml version="1.0" encoding="utf-8"?>
<!-- Generator: Adobe Illustrator 24.2.3, SVG Export Plug-In . SVG Version: 6.00 Build 0)  -->
<svg version="1.1" id="Component_1_13" xmlns="http://www.w3.org/2000/svg" xmlns:xlink="http://www.w3.org/1999/xlink" x="0px"
	 y="0px" viewBox="0 0 157 78" style="enable-background:new 0 0 157 78;" xml:space="preserve">
<style type="text/css">
	.st0{fill:none;}
	.st1{enable-background:new    ;}
	.st2{fill:#FFFFFF;}
	.st3{font-family:'Raleway-Medium';}
	.st4{font-size:21.0332px;}
</style>
<rect class="st0" width="157" height="78"/>
<g class="st1">
	<path class="st2" d="M10.5,10.1c-0.1-0.2-0.3-0.3-0.6-0.5C9.7,9.4,9.4,9.2,9,9.1C8.7,8.9,8.3,8.8,7.8,8.7C7.4,8.6,7,8.5,6.6,8.5
		c-1,0-1.7,0.2-2.2,0.5C3.9,9.4,3.7,10,3.7,10.6c0,0.4,0.1,0.7,0.2,0.9c0.1,0.2,0.4,0.4,0.7,0.6c0.3,0.2,0.7,0.3,1.1,0.5
		c0.5,0.1,1,0.3,1.6,0.4c0.7,0.2,1.4,0.4,2,0.6c0.6,0.2,1.1,0.5,1.5,0.8c0.4,0.3,0.7,0.7,1,1.2c0.2,0.5,0.3,1,0.3,1.7
		c0,0.8-0.1,1.4-0.4,2c-0.3,0.5-0.7,1-1.2,1.3c-0.5,0.3-1.1,0.6-1.7,0.8c-0.6,0.2-1.3,0.2-2.1,0.2c-1.1,0-2.2-0.2-3.2-0.5
		c-1-0.3-2-0.8-2.8-1.5l1.1-2C2,17.8,2.2,18,2.5,18.2c0.3,0.2,0.7,0.4,1.2,0.6c0.4,0.2,0.9,0.4,1.5,0.5c0.5,0.1,1.1,0.2,1.6,0.2
		c0.9,0,1.6-0.2,2.1-0.5c0.5-0.3,0.7-0.8,0.7-1.4c0-0.4-0.1-0.7-0.3-0.9c-0.2-0.3-0.5-0.5-0.8-0.7c-0.3-0.2-0.8-0.4-1.3-0.5
		c-0.5-0.2-1.1-0.3-1.7-0.5c-0.7-0.2-1.4-0.4-1.9-0.6c-0.5-0.2-1-0.5-1.4-0.8c-0.4-0.3-0.6-0.7-0.8-1.1c-0.2-0.4-0.3-0.9-0.3-1.5
		c0-0.7,0.1-1.4,0.4-1.9C2,8.5,2.3,8,2.8,7.6c0.5-0.4,1-0.7,1.7-0.9c0.6-0.2,1.4-0.3,2.1-0.3c1,0,1.9,0.2,2.8,0.5
		c0.8,0.3,1.6,0.7,2.2,1.2L10.5,10.1z"/>
	<path class="st2" d="M26.3,6.5v14.9H24v-6.6h-7.4v6.6h-2.3V6.5h2.3v6.2H24V6.5H26.3z"/>
	<path class="st2" d="M33.8,6.5h2l5.8,14.9h-2.4l-1.6-4.1h-5.7l-1.5,4.1h-2.5L33.8,6.5z M37.1,15.7l-2.4-6.4l-2.4,6.4H37.1z"/>
	<path class="st2" d="M43.2,21.5V6.6h2.3v7.7l6.9-7.7H55l-5.8,6.6l6.1,8.3h-2.6l-5-6.9L45.5,17v4.5H43.2z"/>
	<path class="st2" d="M66.7,19.4v2.1H56.7V6.5h9.9v2.1H59v4.2h6.6v2H59v4.6H66.7z"/>
	<path class="st2" d="M77.3,10.1c-0.1-0.2-0.3-0.3-0.6-0.5c-0.3-0.2-0.6-0.3-0.9-0.5c-0.4-0.2-0.7-0.3-1.2-0.4
		c-0.4-0.1-0.9-0.1-1.3-0.1c-1,0-1.7,0.2-2.2,0.5c-0.5,0.4-0.7,0.9-0.7,1.5c0,0.4,0.1,0.7,0.2,0.9c0.1,0.2,0.4,0.4,0.7,0.6
		c0.3,0.2,0.7,0.3,1.1,0.5c0.5,0.1,1,0.3,1.6,0.4c0.7,0.2,1.4,0.4,2,0.6c0.6,0.2,1.1,0.5,1.5,0.8c0.4,0.3,0.7,0.7,1,1.2
		c0.2,0.5,0.3,1,0.3,1.7c0,0.8-0.1,1.4-0.4,2c-0.3,0.5-0.7,1-1.2,1.3c-0.5,0.3-1.1,0.6-1.7,0.8c-0.6,0.2-1.3,0.2-2.1,0.2
		c-1.1,0-2.2-0.2-3.2-0.5c-1-0.3-2-0.8-2.8-1.5l1.1-2c0.2,0.2,0.4,0.4,0.8,0.6c0.3,0.2,0.7,0.4,1.2,0.6c0.4,0.2,0.9,0.4,1.5,0.5
		c0.5,0.1,1.1,0.2,1.6,0.2c0.9,0,1.6-0.2,2.1-0.5c0.5-0.3,0.7-0.8,0.7-1.4c0-0.4-0.1-0.7-0.3-0.9c-0.2-0.3-0.5-0.5-0.8-0.7
		c-0.3-0.2-0.8-0.4-1.3-0.5c-0.5-0.2-1.1-0.3-1.7-0.5c-0.7-0.2-1.4-0.4-1.9-0.6c-0.5-0.2-1-0.5-1.4-0.8c-0.4-0.3-0.6-0.7-0.8-1.1
		c-0.2-0.4-0.3-0.9-0.3-1.5c0-0.7,0.1-1.4,0.4-1.9c0.3-0.6,0.7-1,1.1-1.4c0.5-0.4,1-0.7,1.7-0.9c0.6-0.2,1.4-0.3,2.1-0.3
		c1,0,1.9,0.2,2.8,0.5c0.8,0.3,1.6,0.7,2.2,1.2L77.3,10.1z"/>
	<path class="st2" d="M81.1,21.5V6.5h6.2c0.7,0,1.3,0.1,1.8,0.4c0.6,0.3,1,0.6,1.4,1.1c0.4,0.5,0.7,1,0.9,1.6
		c0.2,0.6,0.3,1.2,0.3,1.8c0,0.6-0.1,1.2-0.3,1.8c-0.2,0.6-0.5,1.1-0.9,1.6c-0.4,0.5-0.9,0.8-1.4,1.1c-0.5,0.3-1.1,0.4-1.8,0.4h-4
		v5.2H81.1z M83.4,14.2h3.8c0.3,0,0.6-0.1,0.9-0.2c0.3-0.1,0.5-0.3,0.7-0.6c0.2-0.3,0.3-0.5,0.5-0.9c0.1-0.3,0.2-0.7,0.2-1.1
		c0-0.4-0.1-0.8-0.2-1.1c-0.1-0.3-0.3-0.6-0.5-0.9C88.5,9.1,88.3,9,88,8.8c-0.3-0.1-0.6-0.2-0.9-0.2h-3.7V14.2z"/>
	<path class="st2" d="M103.8,19.4v2.1H93.8V6.5h9.9v2.1h-7.6v4.2h6.6v2h-6.6v4.6H103.8z"/>
	<path class="st2" d="M110.4,6.5h2l5.8,14.9h-2.4l-1.6-4.1h-5.7l-1.5,4.1h-2.5L110.4,6.5z M113.7,15.7l-2.4-6.4l-2.4,6.4H113.7z"/>
	<path class="st2" d="M119.8,21.5V6.5h6.4c0.7,0,1.3,0.1,1.8,0.4c0.6,0.3,1,0.6,1.4,1.1c0.4,0.5,0.7,1,0.9,1.6
		c0.2,0.6,0.3,1.2,0.3,1.8c0,0.5-0.1,1-0.2,1.5c-0.1,0.5-0.3,0.9-0.6,1.3c-0.2,0.4-0.6,0.7-0.9,1c-0.4,0.3-0.8,0.5-1.2,0.6l3.5,5.7
		h-2.6l-3.2-5.2h-3.4v5.2H119.8z M122.1,14.2h4.1c0.3,0,0.6-0.1,0.9-0.2c0.3-0.1,0.5-0.4,0.7-0.6c0.2-0.3,0.3-0.6,0.5-0.9
		c0.1-0.3,0.2-0.7,0.2-1.1s-0.1-0.7-0.2-1.1c-0.1-0.3-0.3-0.6-0.5-0.9c-0.2-0.3-0.5-0.5-0.7-0.6c-0.3-0.1-0.6-0.2-0.9-0.2h-3.9V14.2
		z"/>
	<path class="st2" d="M143.4,19.4v2.1h-10.1V6.5h9.9v2.1h-7.6v4.2h6.6v2h-6.6v4.6H143.4z"/>
</g>
<g class="st1">
	<path class="st2" d="M2.1,46.3V31.4h1.5v14.9H2.1z"/>
</g>
<g class="st1">
	<path class="st2" d="M8.2,34.1v12.2H6.8V31.4h1.1l9.9,12.4V31.4h1.5v14.9H18L8.2,34.1z"/>
</g>
<g class="st1">
	<path class="st2" d="M37.2,32.7h-5.3v13.6h-1.5V32.7h-5.3v-1.3h12.1V32.7z"/>
	<path class="st2" d="M50.8,31.4v14.9h-1.5v-7h-8.9v7h-1.5V31.4h1.5V38h8.9v-6.6H50.8z"/>
	<path class="st2" d="M64.2,45v1.3h-10V31.4h9.8v1.3h-8.4v5.4H63v1.2h-7.3V45H64.2z"/>
</g>
<text transform="matrix(1 0 0 1 69.1045 46.3301)" class="st2 st3 st4"> </text>
<g class="st1">
	<path class="st2" d="M71.8,46.3V31.4h6.5c0.7,0,1.3,0.1,1.9,0.4c0.6,0.3,1.1,0.6,1.5,1.1c0.4,0.5,0.7,1,1,1.6
		c0.2,0.6,0.3,1.2,0.3,1.8c0,0.5-0.1,1-0.2,1.5c-0.1,0.5-0.3,0.9-0.6,1.3c-0.3,0.4-0.6,0.7-0.9,1c-0.4,0.3-0.8,0.5-1.2,0.6l3.5,5.7
		h-2.7l-3.2-5.2h-3.4v5.2H71.8z M74.1,39.1h4.1c0.3,0,0.6-0.1,0.9-0.2c0.3-0.1,0.5-0.4,0.7-0.6c0.2-0.3,0.4-0.6,0.5-0.9
		c0.1-0.3,0.2-0.7,0.2-1.1c0-0.4-0.1-0.7-0.2-1.1c-0.1-0.3-0.3-0.6-0.5-0.9c-0.2-0.3-0.5-0.5-0.8-0.6c-0.3-0.1-0.6-0.2-0.9-0.2h-4
		V39.1z"/>
	<path class="st2" d="M91.9,46.4c-1.1,0-2-0.2-2.9-0.6c-0.9-0.4-1.6-1-2.3-1.7c-0.6-0.7-1.1-1.5-1.5-2.4c-0.3-0.9-0.5-1.8-0.5-2.8
		c0-1,0.2-1.9,0.5-2.9c0.4-0.9,0.9-1.7,1.5-2.4c0.6-0.7,1.4-1.3,2.3-1.7c0.9-0.4,1.8-0.6,2.9-0.6c1.1,0,2,0.2,2.9,0.7
		c0.9,0.4,1.6,1,2.3,1.7c0.6,0.7,1.1,1.5,1.5,2.4c0.3,0.9,0.5,1.8,0.5,2.8c0,1-0.2,1.9-0.5,2.9c-0.4,0.9-0.9,1.7-1.5,2.4
		c-0.6,0.7-1.4,1.2-2.3,1.7C93.8,46.2,92.9,46.4,91.9,46.4z M87.1,38.9c0,0.7,0.1,1.4,0.3,2c0.2,0.7,0.5,1.2,1,1.7
		c0.4,0.5,0.9,0.9,1.5,1.2c0.6,0.3,1.2,0.5,2,0.5c0.8,0,1.4-0.2,2-0.5c0.6-0.3,1.1-0.7,1.5-1.3c0.4-0.5,0.7-1.1,0.9-1.7
		c0.2-0.6,0.3-1.3,0.3-2c0-0.7-0.1-1.4-0.3-2.1c-0.2-0.7-0.5-1.2-1-1.7c-0.4-0.5-0.9-0.9-1.5-1.2c-0.6-0.3-1.2-0.5-1.9-0.5
		c-0.8,0-1.4,0.2-2,0.5c-0.6,0.3-1.1,0.7-1.5,1.2c-0.4,0.5-0.7,1.1-0.9,1.7C87.2,37.5,87.1,38.2,87.1,38.9z"/>
	<path class="st2" d="M101.6,31.4l4.1,7.5l4.2-7.5h2.6l-5.6,9.6v5.3h-2.4v-5.4L99,31.4H101.6z"/>
	<path class="st2" d="M117,31.4h2.1l5.9,14.9h-2.5l-1.6-4.1h-5.8l-1.6,4.1H111L117,31.4z M120.4,40.5l-2.4-6.4l-2.5,6.4H120.4z"/>
	<path class="st2" d="M126.8,46.3V31.4h2.4v12.9h8v2.1H126.8z"/>
</g>
<g class="st1">
	<path class="st2" d="M0.9,63.6c0-0.9,0.2-1.8,0.5-2.7c0.3-0.9,0.8-1.7,1.4-2.4c0.6-0.7,1.4-1.3,2.3-1.7c0.9-0.4,1.9-0.7,3-0.7
		c1.4,0,2.5,0.3,3.5,0.9c1,0.6,1.7,1.4,2.2,2.3l-1.8,1.2c-0.2-0.4-0.5-0.8-0.8-1.1c-0.3-0.3-0.6-0.6-1-0.7c-0.3-0.2-0.7-0.3-1.1-0.4
		c-0.4-0.1-0.7-0.1-1.1-0.1c-0.8,0-1.5,0.2-2.1,0.5s-1.1,0.7-1.5,1.2c-0.4,0.5-0.7,1.1-0.9,1.7c-0.2,0.6-0.3,1.3-0.3,1.9
		c0,0.7,0.1,1.4,0.4,2.1c0.2,0.7,0.6,1.2,1,1.7c0.4,0.5,0.9,0.9,1.5,1.2c0.6,0.3,1.2,0.5,1.9,0.5c0.4,0,0.7,0,1.1-0.1
		c0.4-0.1,0.8-0.2,1.1-0.4c0.4-0.2,0.7-0.5,1-0.8c0.3-0.3,0.5-0.7,0.7-1.1l1.9,1.1c-0.2,0.6-0.6,1.1-1,1.5c-0.4,0.4-0.9,0.8-1.5,1.1
		c-0.5,0.3-1.1,0.5-1.7,0.7c-0.6,0.2-1.2,0.2-1.8,0.2c-1,0-2-0.2-2.9-0.7c-0.9-0.4-1.6-1-2.2-1.8c-0.6-0.7-1.1-1.5-1.5-2.5
		C1.1,65.5,0.9,64.6,0.9,63.6z"/>
	<path class="st2" d="M23.1,71.3c-1.1,0-2-0.2-2.9-0.6c-0.9-0.4-1.6-1-2.3-1.7c-0.6-0.7-1.1-1.5-1.5-2.4c-0.3-0.9-0.5-1.8-0.5-2.8
		c0-1,0.2-1.9,0.5-2.9c0.4-0.9,0.9-1.7,1.5-2.4c0.6-0.7,1.4-1.3,2.3-1.7c0.9-0.4,1.8-0.6,2.9-0.6c1.1,0,2,0.2,2.9,0.7
		c0.9,0.4,1.6,1,2.2,1.7c0.6,0.7,1.1,1.5,1.4,2.4c0.3,0.9,0.5,1.8,0.5,2.8c0,1-0.2,1.9-0.5,2.9c-0.4,0.9-0.9,1.7-1.5,2.4
		c-0.6,0.7-1.4,1.2-2.3,1.7C25,71.1,24.1,71.3,23.1,71.3z M18.3,63.7c0,0.7,0.1,1.4,0.3,2c0.2,0.7,0.5,1.2,1,1.7
		c0.4,0.5,0.9,0.9,1.5,1.2c0.6,0.3,1.2,0.5,2,0.5c0.8,0,1.4-0.2,2-0.5c0.6-0.3,1.1-0.7,1.5-1.2c0.4-0.5,0.7-1.1,0.9-1.7
		c0.2-0.6,0.3-1.3,0.3-2c0-0.7-0.1-1.4-0.3-2c-0.2-0.7-0.5-1.2-1-1.7c-0.4-0.5-0.9-0.9-1.5-1.2c-0.6-0.3-1.2-0.5-1.9-0.5
		c-0.8,0-1.4,0.2-2,0.5c-0.6,0.3-1.1,0.7-1.5,1.2c-0.4,0.5-0.7,1.1-0.9,1.7C18.4,62.4,18.3,63.1,18.3,63.7z"/>
	<path class="st2" d="M33.5,71.2V56.3h2.3v12.8h8v2.1H33.5z"/>
	<path class="st2" d="M46.6,71.2V56.3h2.3v12.8h8v2.1H46.6z"/>
	<path class="st2" d="M69.9,69.1v2.1H59.7V56.3h10v2.1H62v4.2h6.6v1.9H62v4.5H69.9z"/>
	<path class="st2" d="M71.9,63.6c0-0.9,0.2-1.8,0.5-2.7c0.3-0.9,0.8-1.7,1.4-2.4c0.6-0.7,1.4-1.3,2.3-1.7c0.9-0.4,1.9-0.7,3-0.7
		c1.4,0,2.5,0.3,3.5,0.9c1,0.6,1.7,1.4,2.2,2.3l-1.8,1.2c-0.2-0.4-0.5-0.8-0.8-1.1c-0.3-0.3-0.6-0.6-1-0.7c-0.3-0.2-0.7-0.3-1.1-0.4
		c-0.4-0.1-0.7-0.1-1.1-0.1c-0.8,0-1.5,0.2-2.1,0.5c-0.6,0.3-1.1,0.7-1.5,1.2c-0.4,0.5-0.7,1.1-0.9,1.7c-0.2,0.6-0.3,1.3-0.3,1.9
		c0,0.7,0.1,1.4,0.4,2.1c0.2,0.7,0.6,1.2,1,1.7c0.4,0.5,0.9,0.9,1.5,1.2c0.6,0.3,1.2,0.5,1.9,0.5c0.4,0,0.7,0,1.1-0.1
		c0.4-0.1,0.8-0.2,1.1-0.4c0.4-0.2,0.7-0.5,1-0.8c0.3-0.3,0.5-0.7,0.7-1.1l1.9,1.1c-0.2,0.6-0.6,1.1-1,1.5c-0.4,0.4-0.9,0.8-1.5,1.1
		c-0.5,0.3-1.1,0.5-1.7,0.7c-0.6,0.2-1.2,0.2-1.8,0.2c-1,0-2-0.2-2.9-0.7c-0.9-0.4-1.6-1-2.2-1.8c-0.6-0.7-1.1-1.5-1.5-2.5
		C72.1,65.5,71.9,64.6,71.9,63.6z"/>
	<path class="st2" d="M98.8,58.4h-4.9v12.8h-2.4V58.4h-5v-2.1h12.3V58.4z"/>
	<path class="st2" d="M101.6,71.2V56.3h2.3v14.9H101.6z"/>
	<path class="st2" d="M114.3,71.3c-1.1,0-2-0.2-2.9-0.6c-0.9-0.4-1.6-1-2.3-1.7c-0.6-0.7-1.1-1.5-1.5-2.4c-0.3-0.9-0.5-1.8-0.5-2.8
		c0-1,0.2-1.9,0.5-2.9c0.4-0.9,0.9-1.7,1.5-2.4c0.6-0.7,1.4-1.3,2.3-1.7c0.9-0.4,1.8-0.6,2.9-0.6c1.1,0,2,0.2,2.9,0.7
		c0.9,0.4,1.6,1,2.2,1.7c0.6,0.7,1.1,1.5,1.4,2.4c0.3,0.9,0.5,1.8,0.5,2.8c0,1-0.2,1.9-0.5,2.9c-0.4,0.9-0.9,1.7-1.5,2.4
		c-0.6,0.7-1.4,1.2-2.3,1.7C116.3,71.1,115.4,71.3,114.3,71.3z M109.6,63.7c0,0.7,0.1,1.4,0.3,2c0.2,0.7,0.5,1.2,1,1.7
		c0.4,0.5,0.9,0.9,1.5,1.2c0.6,0.3,1.2,0.5,2,0.5c0.8,0,1.4-0.2,2-0.5c0.6-0.3,1.1-0.7,1.5-1.2c0.4-0.5,0.7-1.1,0.9-1.7
		c0.2-0.6,0.3-1.3,0.3-2c0-0.7-0.1-1.4-0.3-2c-0.2-0.7-0.5-1.2-1-1.7c-0.4-0.5-0.9-0.9-1.5-1.2c-0.6-0.3-1.2-0.5-1.9-0.5
		c-0.8,0-1.4,0.2-2,0.5s-1.1,0.7-1.5,1.2c-0.4,0.5-0.7,1.1-0.9,1.7C109.7,62.4,109.6,63.1,109.6,63.7z"/>
	<path class="st2" d="M127.1,60.7v10.5h-2.3V56.3h1.8l8.5,10.7V56.3h2.4v14.9h-1.9L127.1,60.7z"/>
</g>
</svg>
