<?xml version="1.0" encoding="utf-8"?>
<!-- Generator: Adobe Illustrator 24.2.3, SVG Export Plug-In . SVG Version: 6.00 Build 0)  -->
<svg version="1.1" id="Layer_1" xmlns="http://www.w3.org/2000/svg" xmlns:xlink="http://www.w3.org/1999/xlink" x="0px" y="0px"
	 viewBox="0 0 1275.6 1275.6" style="enable-background:new 0 0 1275.6 1275.6;" xml:space="preserve">
<style type="text/css">
	.st0{fill:#004B63;}
	.st1{enable-background:new    ;}
	.st2{fill:#FFFFFF;}
	.st3{font-family:'Raleway-Medium';}
	.st4{font-size:171.7158px;}
</style>
<rect x="1" y="1" class="st0" width="1275.6" height="1275.6"/>
<g class="st1">
	<path class="st2" d="M134.4,708.1c-1.1-1.3-2.8-2.6-4.9-4c-2.1-1.4-4.6-2.8-7.5-4c-2.9-1.3-6-2.3-9.5-3.1c-3.4-0.8-7-1.2-10.6-1.2
		c-8,0-13.9,1.5-17.7,4.5c-3.8,3-5.7,7.1-5.7,12.4c0,3,0.6,5.4,1.8,7.3c1.2,1.9,3,3.5,5.5,5c2.5,1.4,5.6,2.7,9.3,3.8
		c3.7,1.1,8.1,2.3,13,3.5c6.1,1.5,11.6,3.1,16.5,5c4.9,1.8,9,4.1,12.4,6.7c3.4,2.6,6,5.9,7.9,9.7c1.9,3.8,2.8,8.5,2.8,14
		c0,6.2-1.2,11.5-3.5,16c-2.3,4.5-5.5,8.1-9.5,10.9c-4,2.8-8.6,4.9-13.9,6.2c-5.3,1.3-11,2-17.1,2c-9.1,0-17.9-1.4-26.4-4.2
		c-8.5-2.8-16.2-6.9-23.1-12.3l8.6-16.5c1.5,1.5,3.6,3.2,6.3,5c2.8,1.8,6,3.5,9.6,5.1c3.7,1.5,7.6,2.9,11.9,4
		c4.3,1.1,8.7,1.6,13.3,1.6c7.4,0,13.2-1.3,17.2-4c4.1-2.6,6.1-6.5,6.1-11.7c0-3.1-0.8-5.7-2.3-7.7s-3.7-3.9-6.5-5.4
		c-2.8-1.5-6.3-2.9-10.3-4.2c-4.1-1.3-8.7-2.6-13.9-3.9c-6-1.6-11.2-3.3-15.6-5.1c-4.5-1.8-8.1-3.9-11.1-6.4
		c-2.9-2.5-5.2-5.5-6.7-8.8c-1.5-3.4-2.3-7.5-2.3-12.3c0-6,1.1-11.2,3.4-15.9c2.3-4.6,5.3-8.5,9.2-11.7c3.9-3.1,8.5-5.5,13.8-7.1
		c5.3-1.6,11-2.4,17.2-2.4c8.1,0,15.6,1.3,22.5,4c6.9,2.6,12.9,5.9,18.1,9.8L134.4,708.1z"/>
	<path class="st2" d="M263.5,679.4v121.9h-19.1v-53.7h-60.5v53.7H165V679.4h18.9v51h60.5v-51H263.5z"/>
	<path class="st2" d="M324.2,679.4h16.6l47.3,121.9h-19.9l-12.7-33.1h-46.3l-12.5,33.1h-20.1L324.2,679.4z M351.7,753.9l-19.3-52.4
		l-19.9,52.4H351.7z"/>
	<path class="st2" d="M401.3,801.3V679.6h18.9v62.7l56.4-62.8h21l-47.3,53.9l50,68h-21.1l-40.6-56.2l-18.4,19.4v36.7H401.3z"/>
	<path class="st2" d="M593.4,784.3v17h-82.3V679.4h80.8v17H530v34.7h53.6v16H530v37.3H593.4z"/>
	<path class="st2" d="M679.7,708.1c-1.1-1.3-2.8-2.6-4.9-4c-2.1-1.4-4.6-2.8-7.5-4c-2.9-1.3-6-2.3-9.5-3.1c-3.4-0.8-7-1.2-10.6-1.2
		c-8,0-13.9,1.5-17.7,4.5c-3.8,3-5.7,7.1-5.7,12.4c0,3,0.6,5.4,1.8,7.3c1.2,1.9,3,3.5,5.5,5c2.5,1.4,5.6,2.7,9.3,3.8
		c3.7,1.1,8.1,2.3,13,3.5c6.1,1.5,11.6,3.1,16.5,5c4.9,1.8,9,4.1,12.4,6.7c3.4,2.6,6,5.9,7.9,9.7c1.9,3.8,2.8,8.5,2.8,14
		c0,6.2-1.2,11.5-3.5,16c-2.3,4.5-5.5,8.1-9.5,10.9c-4,2.8-8.6,4.9-13.9,6.2c-5.3,1.3-11,2-17.1,2c-9.1,0-17.9-1.4-26.4-4.2
		c-8.5-2.8-16.2-6.9-23.1-12.3l8.6-16.5c1.5,1.5,3.6,3.2,6.3,5c2.8,1.8,6,3.5,9.6,5.1c3.7,1.5,7.6,2.9,11.9,4
		c4.3,1.1,8.7,1.6,13.4,1.6c7.4,0,13.2-1.3,17.2-4c4.1-2.6,6.1-6.5,6.1-11.7c0-3.1-0.8-5.7-2.3-7.7c-1.5-2.1-3.7-3.9-6.5-5.4
		c-2.8-1.5-6.3-2.9-10.3-4.2c-4.1-1.3-8.7-2.6-13.9-3.9c-6-1.6-11.2-3.3-15.6-5.1c-4.5-1.8-8.1-3.9-11.1-6.4
		c-2.9-2.5-5.2-5.5-6.7-8.8c-1.5-3.4-2.3-7.5-2.3-12.3c0-6,1.1-11.2,3.4-15.9c2.3-4.6,5.3-8.5,9.2-11.7c3.9-3.1,8.5-5.5,13.8-7.1
		c5.3-1.6,11-2.4,17.2-2.4c8.1,0,15.6,1.3,22.5,4c6.9,2.6,12.9,5.9,18.1,9.8L679.7,708.1z"/>
	<path class="st2" d="M710.3,801.3V679.4h50.4c5.4,0,10.4,1.1,15,3.4c4.6,2.3,8.5,5.3,11.7,9c3.3,3.7,5.8,8,7.7,12.7
		c1.9,4.8,2.8,9.6,2.8,14.5c0,5.2-0.9,10.1-2.6,14.9c-1.7,4.8-4.2,9-7.4,12.7c-3.2,3.7-7,6.7-11.4,8.9c-4.5,2.2-9.4,3.3-14.8,3.3
		h-32.4v42.4H710.3z M729.3,741.9h31.3c2.7,0,5.2-0.6,7.4-1.7c2.2-1.1,4.1-2.7,5.7-4.8c1.6-2.1,2.8-4.5,3.7-7.2
		c0.9-2.7,1.4-5.8,1.4-9.1c0-3.4-0.5-6.5-1.5-9.3s-2.4-5.1-4.2-7.1c-1.8-2-3.9-3.5-6.2-4.6c-2.3-1.1-4.7-1.6-7.2-1.6h-30.2V741.9z"
		/>
	<path class="st2" d="M896.2,784.3v17h-82.3V679.4h80.8v17h-61.8v34.7h53.6v16h-53.6v37.3H896.2z"/>
	<path class="st2" d="M949.4,679.4H966l47.3,121.9h-19.9l-12.7-33.1h-46.3l-12.5,33.1h-20.1L949.4,679.4z M977,753.9l-19.3-52.4
		l-19.9,52.4H977z"/>
	<path class="st2" d="M1026.5,801.3V679.4h52.2c5.4,0,10.4,1.1,15,3.4c4.6,2.3,8.5,5.3,11.7,9c3.3,3.7,5.8,8,7.7,12.7
		c1.9,4.8,2.8,9.6,2.8,14.5c0,4.1-0.6,8.1-1.7,11.8c-1.1,3.8-2.7,7.3-4.7,10.5c-2,3.2-4.5,6-7.4,8.3c-2.9,2.3-6.1,4.1-9.6,5.2
		l28.2,46.4h-21.5l-26-42.4h-27.7v42.4H1026.5z M1045.4,741.9h33.1c2.7,0,5.2-0.6,7.4-1.8c2.2-1.2,4.1-2.9,5.7-5
		c1.6-2.1,2.8-4.6,3.7-7.3c0.9-2.7,1.4-5.7,1.4-8.8s-0.5-6-1.6-8.8c-1.1-2.7-2.5-5.2-4.2-7.2c-1.7-2.1-3.8-3.7-6.1-4.9
		c-2.3-1.2-4.7-1.8-7.2-1.8h-32.1V741.9z"/>
	<path class="st2" d="M1218.8,784.3v17h-82.3V679.4h80.8v17h-61.8v34.7h53.6v16h-53.6v37.3H1218.8z"/>
</g>
<g class="st1">
	<path class="st2" d="M65.4,1004.3V882.5h11.8v121.7H65.4z"/>
</g>
<g class="st1">
	<path class="st2" d="M115.6,904.7v99.6h-11.8V882.3h9.3l80.7,101.5V882.5h11.8v121.7h-10.3L115.6,904.7z"/>
</g>
<g class="st1">
	<path class="st2" d="M352,893h-43.4v111.3h-12V893h-43.4v-10.6H352V893z"/>
	<path class="st2" d="M463.6,882.3v121.9h-12v-57h-72.3v57h-11.8V882.3h11.8v54.3h72.3v-54.3H463.6z"/>
	<path class="st2" d="M573,993.6v10.6h-81.9V882.3h80.4V893h-68.5v44h59.8v10.1h-59.8v46.5H573z"/>
</g>
<text transform="matrix(1 0 0 1 612.6466 1004.2661)" class="st2 st3 st4"> </text>
<g class="st1">
	<path class="st2" d="M634.4,1004.3V882.3h53.1c5.5,0,10.6,1.1,15.2,3.4c4.6,2.3,8.6,5.3,11.9,9c3.3,3.7,5.9,8,7.8,12.7
		c1.9,4.8,2.8,9.6,2.8,14.5c0,4.1-0.6,8.1-1.7,11.8c-1.1,3.8-2.7,7.3-4.8,10.5c-2.1,3.2-4.6,6-7.6,8.3c-3,2.3-6.2,4.1-9.8,5.2
		l28.7,46.4h-21.8l-26.4-42.4h-28.2v42.4H634.4z M653.6,944.9h33.7c2.7,0,5.2-0.6,7.5-1.8c2.2-1.2,4.1-2.9,5.8-5
		c1.6-2.1,2.9-4.6,3.8-7.3c0.9-2.7,1.4-5.7,1.4-8.8c0-3.1-0.5-6-1.6-8.8c-1.1-2.7-2.5-5.2-4.3-7.2c-1.8-2.1-3.8-3.7-6.2-4.9
		c-2.3-1.2-4.8-1.8-7.3-1.8h-32.6V944.9z"/>
	<path class="st2" d="M798.5,1005.1c-8.7,0-16.6-1.7-23.8-5.2c-7.2-3.5-13.3-8.1-18.5-13.9c-5.2-5.8-9.1-12.4-11.9-19.8
		c-2.8-7.4-4.2-15.1-4.2-22.8c0-8.1,1.5-15.9,4.5-23.4c3-7.4,7.1-14,12.3-19.7c5.2-5.7,11.4-10.3,18.5-13.7c7.2-3.4,15-5.1,23.4-5.1
		c8.7,0,16.6,1.8,23.8,5.4c7.2,3.6,13.3,8.3,18.4,14.2c5.1,5.8,9,12.4,11.8,19.8c2.8,7.4,4.2,14.9,4.2,22.6c0,8.1-1.5,15.9-4.4,23.4
		c-2.9,7.4-7,14-12.3,19.7c-5.3,5.7-11.5,10.2-18.6,13.6C814.7,1003.4,806.9,1005.1,798.5,1005.1z M759.7,943.3
		c0,5.7,0.9,11.3,2.7,16.7c1.8,5.4,4.4,10.1,7.8,14.3c3.4,4.1,7.5,7.4,12.3,9.9c4.8,2.5,10.2,3.7,16.1,3.7c6.2,0,11.6-1.3,16.4-3.9
		c4.7-2.6,8.8-6,12.1-10.2c3.3-4.2,5.8-9,7.6-14.3c1.7-5.3,2.6-10.6,2.6-16.1c0-5.8-0.9-11.4-2.7-16.7c-1.8-5.3-4.4-10-7.8-14.1
		c-3.4-4.1-7.4-7.3-12.2-9.8c-4.8-2.5-10-3.7-15.9-3.7c-6.2,0-11.7,1.3-16.5,3.9c-4.8,2.6-8.9,5.9-12.2,10
		c-3.3,4.1-5.9,8.8-7.6,14.2C760.6,932.4,759.7,937.8,759.7,943.3z"/>
	<path class="st2" d="M877.7,882.3l33.7,61.1l34-61.1h21.1L921,960.7v43.6h-19.2v-44l-45.2-78H877.7z"/>
	<path class="st2" d="M1003.4,882.3h16.8l48.1,121.9h-20.3l-12.9-33.1h-47.1l-12.7,33.1H955L1003.4,882.3z M1031.4,956.9l-19.6-52.4
		l-20.3,52.4H1031.4z"/>
	<path class="st2" d="M1083.4,1004.3V882.3h19.2v104.9h65.4v17H1083.4z"/>
</g>
<g class="st1">
	<path class="st2" d="M55.9,1145.6c0-7.3,1.3-14.6,3.9-21.8c2.6-7.2,6.5-13.8,11.6-19.5c5.1-5.8,11.3-10.4,18.6-14
		c7.3-3.5,15.6-5.3,24.8-5.3c11.1,0,20.5,2.5,28.4,7.4c7.9,4.9,13.8,11.3,17.8,19.2l-15.1,10.1c-1.7-3.7-3.8-6.7-6.2-9.2
		c-2.4-2.5-5-4.5-7.9-6c-2.9-1.5-5.8-2.5-8.9-3.2c-3.1-0.6-6-0.9-8.9-0.9c-6.4,0-12,1.3-16.8,3.9s-8.8,6-12.1,10.2
		c-3.3,4.2-5.7,9-7.4,14.2c-1.7,5.2-2.5,10.5-2.5,15.7c0,5.9,1,11.6,2.9,16.9c1.9,5.4,4.6,10.1,8.1,14.2c3.5,4.1,7.6,7.4,12.4,9.8
		c4.8,2.5,10,3.7,15.7,3.7c3,0,6-0.4,9.2-1.1c3.1-0.7,6.2-1.9,9.1-3.6c2.9-1.7,5.6-3.7,8-6.2c2.5-2.5,4.5-5.5,6.1-9.1l15.9,9.1
		c-1.9,4.6-4.7,8.6-8.2,12.1c-3.5,3.5-7.5,6.4-12,8.8c-4.5,2.4-9.2,4.2-14.1,5.5s-9.8,1.9-14.6,1.9c-8.6,0-16.4-1.8-23.5-5.5
		c-7.1-3.7-13.2-8.4-18.3-14.3c-5.1-5.9-9.1-12.6-12-20C57.4,1161,55.9,1153.3,55.9,1145.6z"/>
	<path class="st2" d="M236.9,1208.1c-8.7,0-16.6-1.7-23.7-5.2c-7.1-3.5-13.3-8.1-18.4-13.9c-5.1-5.8-9.1-12.4-11.9-19.8
		c-2.8-7.4-4.2-15-4.2-22.8c0-8.1,1.5-15.9,4.5-23.3c3-7.4,7-14,12.2-19.7c5.2-5.7,11.4-10.2,18.5-13.6c7.1-3.4,14.9-5,23.4-5
		c8.7,0,16.6,1.8,23.7,5.4c7.1,3.6,13.2,8.3,18.3,14.1c5.1,5.8,9,12.4,11.8,19.8c2.8,7.4,4.2,14.9,4.2,22.5c0,8.1-1.5,15.9-4.4,23.3
		c-2.9,7.4-7,13.9-12.2,19.6c-5.2,5.6-11.4,10.2-18.6,13.5C252.9,1206.4,245.2,1208.1,236.9,1208.1z M198.2,1146.4
		c0,5.7,0.9,11.2,2.7,16.6c1.8,5.4,4.4,10.1,7.8,14.2c3.4,4.1,7.4,7.4,12.2,9.8c4.8,2.5,10.2,3.7,16.1,3.7c6.2,0,11.6-1.3,16.3-3.9
		c4.7-2.6,8.8-6,12.1-10.2c3.3-4.2,5.8-9,7.5-14.2c1.7-5.2,2.6-10.6,2.6-16.1c0-5.8-0.9-11.4-2.7-16.7c-1.8-5.3-4.4-10-7.8-14
		c-3.4-4-7.4-7.3-12.2-9.8c-4.7-2.5-10-3.7-15.8-3.7c-6.2,0-11.6,1.3-16.4,3.9c-4.8,2.6-8.8,5.9-12.2,10c-3.3,4.1-5.8,8.8-7.6,14.1
		C199.1,1135.6,198.2,1141,198.2,1146.4z"/>
	<path class="st2" d="M321.9,1207.2v-121.5h19.2v104.6h65.2v16.9H321.9z"/>
	<path class="st2" d="M428.7,1207.2v-121.5h19.2v104.6h65.2v16.9H428.7z"/>
	<path class="st2" d="M618.9,1190.3v16.9h-83.4v-121.5h81.8v16.9h-62.6v34.6H609v15.9h-54.3v37.1H618.9z"/>
	<path class="st2" d="M635.3,1145.6c0-7.3,1.3-14.6,3.9-21.8c2.6-7.2,6.5-13.8,11.6-19.5c5.1-5.8,11.3-10.4,18.6-14
		c7.3-3.5,15.6-5.3,24.8-5.3c11.1,0,20.5,2.5,28.4,7.4c7.9,4.9,13.8,11.3,17.8,19.2l-15.1,10.1c-1.7-3.7-3.8-6.7-6.2-9.2
		c-2.4-2.5-5-4.5-7.9-6c-2.9-1.5-5.8-2.5-8.9-3.2c-3.1-0.6-6-0.9-8.9-0.9c-6.4,0-12,1.3-16.8,3.9c-4.8,2.6-8.8,6-12.1,10.2
		c-3.3,4.2-5.7,9-7.4,14.2c-1.7,5.2-2.5,10.5-2.5,15.7c0,5.9,1,11.6,2.9,16.9c1.9,5.4,4.6,10.1,8.1,14.2c3.5,4.1,7.6,7.4,12.4,9.8
		c4.8,2.5,10,3.7,15.7,3.7c3,0,6-0.4,9.2-1.1c3.1-0.7,6.2-1.9,9.1-3.6c2.9-1.7,5.6-3.7,8-6.2c2.5-2.5,4.5-5.5,6.1-9.1l15.9,9.1
		c-1.9,4.6-4.7,8.6-8.2,12.1c-3.5,3.5-7.5,6.4-12,8.8c-4.5,2.4-9.2,4.2-14.1,5.5s-9.8,1.9-14.6,1.9c-8.6,0-16.4-1.8-23.5-5.5
		c-7.1-3.7-13.2-8.4-18.3-14.3c-5.1-5.9-9.1-12.6-12-20C636.8,1161,635.3,1153.3,635.3,1145.6z"/>
	<path class="st2" d="M855,1102.6h-40.4v104.6h-19.3v-104.6h-40.6v-16.9H855V1102.6z"/>
	<path class="st2" d="M878.1,1207.2v-121.5h19.2v121.5H878.1z"/>
	<path class="st2" d="M982,1208.1c-8.7,0-16.6-1.7-23.7-5.2c-7.1-3.5-13.3-8.1-18.4-13.9c-5.1-5.8-9.1-12.4-11.9-19.8
		c-2.8-7.4-4.2-15-4.2-22.8c0-8.1,1.5-15.9,4.5-23.3c3-7.4,7-14,12.2-19.7c5.2-5.7,11.4-10.2,18.5-13.6c7.1-3.4,14.9-5,23.4-5
		c8.7,0,16.6,1.8,23.7,5.4c7.1,3.6,13.2,8.3,18.3,14.1c5.1,5.8,9,12.4,11.8,19.8c2.8,7.4,4.2,14.9,4.2,22.5c0,8.1-1.5,15.9-4.4,23.3
		c-2.9,7.4-7,13.9-12.2,19.6c-5.2,5.6-11.4,10.2-18.6,13.5C998,1206.4,990.3,1208.1,982,1208.1z M943.3,1146.4
		c0,5.7,0.9,11.2,2.7,16.6c1.8,5.4,4.4,10.1,7.8,14.2c3.4,4.1,7.4,7.4,12.2,9.8c4.8,2.5,10.2,3.7,16.1,3.7c6.2,0,11.6-1.3,16.3-3.9
		c4.7-2.6,8.8-6,12.1-10.2c3.3-4.2,5.8-9,7.5-14.2c1.7-5.2,2.6-10.6,2.6-16.1c0-5.8-0.9-11.4-2.7-16.7c-1.8-5.3-4.4-10-7.8-14
		c-3.4-4-7.4-7.3-12.2-9.8c-4.7-2.5-10-3.7-15.8-3.7c-6.2,0-11.6,1.3-16.4,3.9s-8.8,5.9-12.2,10c-3.3,4.1-5.8,8.8-7.6,14.1
		C944.2,1135.6,943.3,1141,943.3,1146.4z"/>
	<path class="st2" d="M1086.2,1121.6v85.6H1067v-121.5h15.1l69.5,87.6v-87.5h19.3v121.4H1155L1086.2,1121.6z"/>
</g>
</svg>
